<?xml version="1.0" standalone="no"?>
<!DOCTYPE svg PUBLIC "-//W3C//DTD SVG 20010904//EN"
 "http://www.w3.org/TR/2001/REC-SVG-20010904/DTD/svg10.dtd">
<svg version="1.0" xmlns="http://www.w3.org/2000/svg"
 width="2048.000000pt" height="2048.000000pt" viewBox="0 0 2048.000000 2048.000000"
 preserveAspectRatio="xMidYMid meet">
<metadata>
Created by potrace 1.14, written by Peter Selinger 2001-2017
</metadata>
<g transform="translate(0.000000,2048.000000) scale(0.100000,-0.100000)"
fill="#000000" stroke="none">
<path d="M10229 20476 c-2 -2 -77 -6 -167 -10 -89 -4 -168 -9 -175 -11 -7 -2
-55 -6 -108 -10 -52 -3 -106 -7 -120 -10 -13 -2 -51 -6 -84 -9 -191 -18 -587
-80 -810 -128 -77 -16 -147 -31 -155 -33 -201 -42 -709 -195 -895 -270 -549
-220 -925 -424 -1300 -705 -190 -143 -312 -248 -466 -400 -222 -221 -290 -300
-508 -595 -16 -22 -65 -96 -109 -165 -249 -392 -451 -858 -573 -1325 -110
-423 -120 -543 -56 -676 76 -159 243 -265 442 -283 33 -3 101 -10 150 -15 50
-6 158 -17 240 -26 83 -8 166 -17 185 -20 19 -2 60 -7 90 -10 153 -15 165 -16
325 -35 50 -5 115 -12 145 -15 30 -3 91 -10 135 -15 98 -11 185 -20 246 -25
25 -2 61 -6 80 -9 19 -3 59 -8 89 -11 101 -9 535 -55 570 -60 127 -16 259 -26
295 -21 76 12 164 62 234 134 91 93 141 194 187 382 45 187 83 299 148 435
185 389 461 671 850 870 254 129 561 216 856 242 111 10 437 10 518 0 218 -27
401 -74 579 -148 347 -146 591 -366 752 -679 117 -227 170 -425 216 -805 17
-137 30 -1294 15 -1308 -3 -3 -32 -8 -65 -11 -33 -4 -80 -10 -105 -13 -25 -4
-48 -6 -52 -5 -4 1 -42 -3 -85 -8 -43 -5 -105 -12 -138 -15 -33 -3 -76 -8 -95
-10 -19 -2 -64 -7 -100 -10 -36 -3 -81 -8 -100 -10 -45 -5 -109 -12 -240 -25
-58 -6 -121 -13 -140 -15 -19 -2 -66 -7 -105 -11 -38 -3 -78 -8 -88 -10 -9 -1
-54 -6 -100 -10 -45 -3 -84 -8 -87 -9 -3 -2 -41 -6 -85 -10 -44 -3 -87 -8 -95
-10 -8 -3 -42 -7 -75 -10 -67 -7 -583 -72 -630 -80 -16 -3 -106 -16 -200 -30
-230 -34 -228 -34 -330 -52 -49 -8 -103 -17 -120 -20 -80 -12 -489 -97 -626
-128 -85 -20 -161 -38 -169 -40 -263 -59 -839 -244 -1045 -335 -22 -10 -94
-41 -160 -70 -678 -297 -1292 -746 -1725 -1260 -30 -36 -58 -67 -61 -70 -3 -3
-41 -52 -86 -110 -270 -354 -491 -763 -641 -1190 -122 -346 -219 -781 -248
-1117 -3 -37 -7 -73 -9 -80 -6 -20 -19 -355 -19 -498 0 -141 11 -433 19 -505
34 -315 37 -332 66 -500 46 -258 141 -610 214 -785 6 -16 18 -46 25 -65 7 -19
26 -63 42 -98 15 -35 28 -65 28 -68 0 -3 29 -62 63 -132 258 -520 625 -949
1097 -1286 559 -400 1312 -646 2115 -693 216 -13 860 -5 967 12 13 2 66 6 118
10 97 7 403 42 430 50 8 2 35 7 60 10 92 12 349 68 485 106 880 241 1612 715
2537 1643 51 52 92 85 97 80 5 -5 44 -61 86 -124 312 -460 388 -567 525 -740
187 -236 441 -495 725 -739 66 -57 132 -114 147 -127 128 -111 384 -128 560
-38 18 9 50 30 71 46 20 16 37 27 37 23 0 -7 38 23 111 89 25 22 74 66 109 96
35 30 68 60 74 65 24 23 248 219 370 325 22 19 97 85 166 145 137 120 165 144
410 355 91 79 192 166 225 195 33 29 83 71 110 94 28 24 61 53 75 65 14 12
111 94 215 182 233 198 248 213 288 294 30 62 32 71 31 175 0 92 -5 122 -27
183 -34 99 -62 142 -265 419 -288 394 -393 552 -505 766 -140 264 -236 551
-287 851 -49 292 -48 189 -49 3201 -1 1557 -4 2884 -6 2950 -2 66 -6 179 -10
250 -5 122 -8 167 -20 305 -13 159 -17 197 -20 220 -2 14 -6 50 -10 80 -110
921 -428 1643 -969 2200 -342 352 -674 591 -1141 821 -410 201 -921 375 -1380
469 -85 17 -251 50 -280 54 -280 47 -476 72 -717 91 -45 4 -99 9 -118 12 -40
6 -885 14 -891 9z m1825 -8511 c-1 -536 -8 -967 -19 -1080 -2 -22 -6 -74 -10
-115 -17 -211 -39 -359 -96 -638 -57 -280 -249 -764 -393 -992 -143 -225 -183
-280 -298 -416 -398 -468 -929 -738 -1473 -748 -291 -6 -520 40 -752 150 -81
39 -235 134 -268 167 -6 7 -31 28 -55 47 -24 19 -77 73 -117 120 -251 286
-403 668 -451 1134 -14 141 -7 603 11 726 64 428 167 714 364 1011 384 582
1071 955 2073 1128 63 11 135 23 160 26 25 3 56 8 70 10 14 3 45 7 70 9 172
19 234 25 300 31 41 3 98 8 125 10 28 2 113 7 190 11 77 3 141 7 142 8 1 0 97
1 215 1 l213 0 -1 -600z"/>
<path d="M18338 5526 c-1 -2 -64 -6 -139 -10 -75 -4 -147 -9 -160 -11 -13 -2
-51 -6 -84 -10 -122 -12 -153 -17 -300 -46 -549 -108 -1149 -353 -1367 -556
-97 -91 -118 -185 -51 -228 33 -22 116 -23 308 -1 77 8 169 18 205 21 36 3
106 10 155 16 150 16 167 18 260 25 50 4 93 8 96 10 3 1 55 6 115 9 60 4 115
8 121 10 24 8 357 19 543 19 293 0 460 -17 660 -66 76 -19 206 -84 253 -127
51 -47 82 -111 95 -195 9 -59 8 -249 -3 -315 -3 -20 -10 -67 -16 -105 -53
-377 -295 -1138 -570 -1793 -94 -225 -104 -304 -43 -352 50 -39 135 -23 244
48 51 33 253 226 330 316 166 192 321 419 473 690 29 53 157 313 157 320 0 3
11 28 24 57 53 115 130 336 211 609 44 149 114 475 134 625 7 44 14 91 16 105
9 43 20 222 20 314 0 248 -38 338 -178 419 -141 83 -441 153 -772 181 -38 3
-90 8 -115 11 -51 5 -616 14 -622 10z"/>
<path d="M666 5340 c-152 -46 -173 -204 -49 -367 190 -251 745 -821 1123
-1153 47 -41 87 -77 90 -80 27 -29 468 -399 531 -445 15 -11 94 -72 175 -136
433 -338 1097 -790 1498 -1019 17 -9 66 -38 109 -64 43 -25 80 -46 83 -46 3 0
18 -8 32 -18 81 -57 734 -396 967 -502 183 -84 361 -162 475 -209 127 -52 152
-63 193 -81 61 -27 285 -110 484 -181 449 -158 795 -258 1303 -378 229 -54
694 -139 910 -166 30 -4 62 -9 70 -10 15 -3 92 -12 165 -21 22 -2 56 -6 75 -9
19 -2 67 -7 105 -10 39 -4 81 -8 95 -10 14 -1 72 -6 130 -10 58 -4 118 -9 133
-10 204 -24 1180 -24 1437 0 19 2 82 6 140 10 58 4 121 8 140 10 19 2 69 6
110 10 41 3 91 8 110 10 19 2 100 11 180 20 124 14 542 73 635 90 17 3 93 17
170 31 926 165 1908 475 2790 881 173 79 573 281 689 347 54 31 100 56 102 56
8 0 307 178 454 270 508 318 921 632 1349 1024 72 67 227 245 269 311 143 221
147 398 10 475 -80 45 -212 35 -341 -24 -29 -13 -119 -55 -202 -94 -219 -101
-262 -121 -345 -157 -41 -18 -95 -42 -120 -53 -105 -48 -466 -198 -687 -286
-965 -382 -1865 -663 -2783 -870 -186 -42 -509 -109 -585 -121 -16 -3 -68 -13
-115 -21 -47 -9 -98 -18 -115 -21 -16 -2 -82 -13 -145 -23 -327 -54 -784 -111
-1085 -135 -44 -4 -93 -8 -110 -10 -16 -2 -84 -6 -150 -10 -66 -4 -131 -8
-144 -10 -162 -26 -1435 -26 -1626 0 -16 2 -77 6 -135 10 -58 3 -125 8 -150
10 -25 2 -76 7 -115 10 -105 9 -151 14 -475 51 -25 3 -56 7 -70 9 -14 3 -47 7
-75 11 -27 3 -149 21 -270 40 -1156 180 -2343 530 -3508 1033 -340 147 -498
221 -882 411 -374 185 -502 252 -760 393 -71 39 -150 82 -175 95 -199 109
-819 468 -1054 610 -37 23 -70 42 -72 42 -3 0 -17 8 -32 19 -15 10 -90 57
-167 103 -77 47 -234 143 -350 213 -116 71 -231 137 -258 147 -49 19 -132 22
-181 8z"/>
</g>
</svg>
